<mxfile host="drawio-plugin" modified="2021-08-23T12:26:01.221Z" agent="5.0 (Windows NT 6.2; Win64; x64) AppleWebKit/537.36 (KHTML, like Gecko) Chrome/89.0.4389.114 Safari/537.36" etag="HYLTN9hOHHh7Reee1lVq" version="14.7.4" type="embed"><diagram id="C5RBs43oDa-KdzZeNtuy" name="Page-1"><mxGraphModel dx="459" dy="1429" grid="1" gridSize="10" guides="1" tooltips="1" connect="1" arrows="1" fold="1" page="1" pageScale="1" pageWidth="827" pageHeight="1169" math="0" shadow="0"><root><mxCell id="WIyWlLk6GJQsqaUBKTNV-0"/><mxCell id="WIyWlLk6GJQsqaUBKTNV-1" parent="WIyWlLk6GJQsqaUBKTNV-0"/><mxCell id="9" value="&lt;span style=&quot;font-weight: 700&quot;&gt;Server&lt;/span&gt;" style="shape=umlFrame;whiteSpace=wrap;html=1;width=100;height=30;" vertex="1" parent="WIyWlLk6GJQsqaUBKTNV-1"><mxGeometry x="2080" y="1680" width="570" height="450" as="geometry"/></mxCell><mxCell id="bKio8j04jmM2YxtdDzjN-50" value="&lt;span style=&quot;font-weight: 700&quot;&gt;MachineRecipeConfig&lt;/span&gt;" style="shape=umlFrame;whiteSpace=wrap;html=1;width=150;height=30;" parent="WIyWlLk6GJQsqaUBKTNV-1" vertex="1"><mxGeometry x="1870" y="-200" width="960" height="510" as="geometry"/></mxCell><mxCell id="WFD14s_10ghxo7HNn81i-1" value="&lt;span style=&quot;font-weight: 700&quot;&gt;BeltConveyor&lt;/span&gt;" style="shape=umlFrame;whiteSpace=wrap;html=1;width=100;height=30;" parent="WIyWlLk6GJQsqaUBKTNV-1" vertex="1"><mxGeometry x="750" y="760" width="570" height="450" as="geometry"/></mxCell><mxCell id="WFD14s_10ghxo7HNn81i-0" value="Macine" style="shape=umlFrame;whiteSpace=wrap;html=1;" parent="WIyWlLk6GJQsqaUBKTNV-1" vertex="1"><mxGeometry x="1730" y="730" width="510" height="490" as="geometry"/></mxCell><mxCell id="53aYOWAiFv5IG5gvppw0-13" style="edgeStyle=orthogonalEdgeStyle;rounded=0;orthogonalLoop=1;jettySize=auto;html=1;" parent="WIyWlLk6GJQsqaUBKTNV-1" source="53aYOWAiFv5IG5gvppw0-3" target="53aYOWAiFv5IG5gvppw0-10" edge="1"><mxGeometry relative="1" as="geometry"><Array as="points"><mxPoint x="360" y="270"/><mxPoint x="409" y="270"/></Array></mxGeometry></mxCell><mxCell id="53aYOWAiFv5IG5gvppw0-3" value="電力セグメント(電柱、電線)" style="rounded=0;whiteSpace=wrap;html=1;" parent="WIyWlLk6GJQsqaUBKTNV-1" vertex="1"><mxGeometry x="220" y="130" width="180" height="60" as="geometry"/></mxCell><mxCell id="53aYOWAiFv5IG5gvppw0-9" style="edgeStyle=orthogonalEdgeStyle;rounded=0;orthogonalLoop=1;jettySize=auto;html=1;entryX=0.094;entryY=1.05;entryDx=0;entryDy=0;entryPerimeter=0;" parent="WIyWlLk6GJQsqaUBKTNV-1" source="53aYOWAiFv5IG5gvppw0-8" target="53aYOWAiFv5IG5gvppw0-3" edge="1"><mxGeometry relative="1" as="geometry"><mxPoint x="270" y="210" as="targetPoint"/><Array as="points"><mxPoint x="220" y="290"/><mxPoint x="237" y="290"/></Array></mxGeometry></mxCell><mxCell id="53aYOWAiFv5IG5gvppw0-8" value="発電機" style="rounded=0;whiteSpace=wrap;html=1;" parent="WIyWlLk6GJQsqaUBKTNV-1" vertex="1"><mxGeometry x="160" y="390" width="120" height="60" as="geometry"/></mxCell><mxCell id="53aYOWAiFv5IG5gvppw0-10" value="通常機械" style="rounded=0;whiteSpace=wrap;html=1;" parent="WIyWlLk6GJQsqaUBKTNV-1" vertex="1"><mxGeometry x="354" y="390" width="120" height="60" as="geometry"/></mxCell><mxCell id="53aYOWAiFv5IG5gvppw0-28" style="edgeStyle=orthogonalEdgeStyle;rounded=0;orthogonalLoop=1;jettySize=auto;html=1;endArrow=classic;endFill=1;startArrow=classic;startFill=1;" parent="WIyWlLk6GJQsqaUBKTNV-1" source="53aYOWAiFv5IG5gvppw0-20" target="53aYOWAiFv5IG5gvppw0-27" edge="1"><mxGeometry relative="1" as="geometry"><Array as="points"><mxPoint x="560" y="240"/></Array></mxGeometry></mxCell><mxCell id="53aYOWAiFv5IG5gvppw0-20" value="アイテム" style="rounded=0;whiteSpace=wrap;html=1;" parent="WIyWlLk6GJQsqaUBKTNV-1" vertex="1"><mxGeometry x="500" y="180" width="120" height="60" as="geometry"/></mxCell><mxCell id="53aYOWAiFv5IG5gvppw0-25" value="チェスト" style="rounded=0;whiteSpace=wrap;html=1;" parent="WIyWlLk6GJQsqaUBKTNV-1" vertex="1"><mxGeometry x="650" y="460" width="120" height="60" as="geometry"/></mxCell><mxCell id="53aYOWAiFv5IG5gvppw0-29" style="edgeStyle=orthogonalEdgeStyle;rounded=0;orthogonalLoop=1;jettySize=auto;html=1;entryX=0.817;entryY=0.033;entryDx=0;entryDy=0;entryPerimeter=0;endArrow=classic;endFill=1;startArrow=classic;startFill=1;" parent="WIyWlLk6GJQsqaUBKTNV-1" source="53aYOWAiFv5IG5gvppw0-27" target="53aYOWAiFv5IG5gvppw0-10" edge="1"><mxGeometry relative="1" as="geometry"><Array as="points"><mxPoint x="452" y="350"/></Array></mxGeometry></mxCell><mxCell id="53aYOWAiFv5IG5gvppw0-31" style="edgeStyle=orthogonalEdgeStyle;rounded=0;orthogonalLoop=1;jettySize=auto;html=1;entryX=0.25;entryY=0;entryDx=0;entryDy=0;startArrow=classic;startFill=1;endArrow=classic;endFill=1;" parent="WIyWlLk6GJQsqaUBKTNV-1" source="53aYOWAiFv5IG5gvppw0-27" target="53aYOWAiFv5IG5gvppw0-25" edge="1"><mxGeometry relative="1" as="geometry"/></mxCell><mxCell id="53aYOWAiFv5IG5gvppw0-32" style="edgeStyle=orthogonalEdgeStyle;rounded=0;orthogonalLoop=1;jettySize=auto;html=1;entryX=0.75;entryY=0;entryDx=0;entryDy=0;startArrow=classic;startFill=1;endArrow=classic;endFill=1;" parent="WIyWlLk6GJQsqaUBKTNV-1" source="53aYOWAiFv5IG5gvppw0-27" target="53aYOWAiFv5IG5gvppw0-8" edge="1"><mxGeometry relative="1" as="geometry"><Array as="points"><mxPoint x="250" y="330"/></Array></mxGeometry></mxCell><mxCell id="53aYOWAiFv5IG5gvppw0-27" value="ベルトコンベア" style="rounded=0;whiteSpace=wrap;html=1;" parent="WIyWlLk6GJQsqaUBKTNV-1" vertex="1"><mxGeometry x="500" y="310" width="120" height="60" as="geometry"/></mxCell><mxCell id="53aYOWAiFv5IG5gvppw0-36" style="edgeStyle=orthogonalEdgeStyle;rounded=0;orthogonalLoop=1;jettySize=auto;html=1;startArrow=classic;startFill=1;endArrow=classic;endFill=1;" parent="WIyWlLk6GJQsqaUBKTNV-1" source="53aYOWAiFv5IG5gvppw0-33" target="53aYOWAiFv5IG5gvppw0-34" edge="1"><mxGeometry relative="1" as="geometry"/></mxCell><mxCell id="53aYOWAiFv5IG5gvppw0-33" value="液体" style="rounded=0;whiteSpace=wrap;html=1;" parent="WIyWlLk6GJQsqaUBKTNV-1" vertex="1"><mxGeometry x="260" y="650" width="120" height="60" as="geometry"/></mxCell><mxCell id="53aYOWAiFv5IG5gvppw0-35" style="edgeStyle=orthogonalEdgeStyle;rounded=0;orthogonalLoop=1;jettySize=auto;html=1;startArrow=classic;startFill=1;endArrow=classic;endFill=1;" parent="WIyWlLk6GJQsqaUBKTNV-1" source="53aYOWAiFv5IG5gvppw0-34" target="53aYOWAiFv5IG5gvppw0-8" edge="1"><mxGeometry relative="1" as="geometry"/></mxCell><mxCell id="53aYOWAiFv5IG5gvppw0-37" style="edgeStyle=orthogonalEdgeStyle;rounded=0;orthogonalLoop=1;jettySize=auto;html=1;startArrow=classic;startFill=1;endArrow=classic;endFill=1;" parent="WIyWlLk6GJQsqaUBKTNV-1" source="53aYOWAiFv5IG5gvppw0-34" target="53aYOWAiFv5IG5gvppw0-10" edge="1"><mxGeometry relative="1" as="geometry"/></mxCell><mxCell id="53aYOWAiFv5IG5gvppw0-34" value="パイプ、タンク" style="rounded=0;whiteSpace=wrap;html=1;" parent="WIyWlLk6GJQsqaUBKTNV-1" vertex="1"><mxGeometry x="260" y="510" width="120" height="60" as="geometry"/></mxCell><mxCell id="53aYOWAiFv5IG5gvppw0-69" value="IMachine" style="swimlane;fontStyle=0;childLayout=stackLayout;horizontal=1;startSize=26;fillColor=none;horizontalStack=0;resizeParent=1;resizeParentMax=0;resizeLast=0;collapsible=1;marginBottom=0;" parent="WIyWlLk6GJQsqaUBKTNV-1" vertex="1"><mxGeometry x="2050" y="1077" width="140" height="78" as="geometry"/></mxCell><mxCell id="WFD14s_10ghxo7HNn81i-4" value="+ GetState: type" style="text;strokeColor=none;fillColor=none;align=left;verticalAlign=top;spacingLeft=4;spacingRight=4;overflow=hidden;rotatable=0;points=[[0,0.5],[1,0.5]];portConstraint=eastwest;" parent="53aYOWAiFv5IG5gvppw0-69" vertex="1"><mxGeometry y="26" width="140" height="26" as="geometry"/></mxCell><mxCell id="WFD14s_10ghxo7HNn81i-5" value="+ SupplyPower(double)" style="text;strokeColor=none;fillColor=none;align=left;verticalAlign=top;spacingLeft=4;spacingRight=4;overflow=hidden;rotatable=0;points=[[0,0.5],[1,0.5]];portConstraint=eastwest;" parent="53aYOWAiFv5IG5gvppw0-69" vertex="1"><mxGeometry y="52" width="140" height="26" as="geometry"/></mxCell><mxCell id="zECMSTrlHyAf7nlXOJFm-15" value="IPowerSegment" style="swimlane;fontStyle=0;childLayout=stackLayout;horizontal=1;startSize=26;fillColor=none;horizontalStack=0;resizeParent=1;resizeParentMax=0;resizeLast=0;collapsible=1;marginBottom=0;" parent="WIyWlLk6GJQsqaUBKTNV-1" vertex="1"><mxGeometry x="2618" y="540" width="140" height="100" as="geometry"/></mxCell><mxCell id="zECMSTrlHyAf7nlXOJFm-16" value="+ GetState: type" style="text;strokeColor=none;fillColor=none;align=left;verticalAlign=top;spacingLeft=4;spacingRight=4;overflow=hidden;rotatable=0;points=[[0,0.5],[1,0.5]];portConstraint=eastwest;" parent="zECMSTrlHyAf7nlXOJFm-15" vertex="1"><mxGeometry y="26" width="140" height="22" as="geometry"/></mxCell><mxCell id="zECMSTrlHyAf7nlXOJFm-17" value="+ GetGUID: type" style="text;strokeColor=none;fillColor=none;align=left;verticalAlign=top;spacingLeft=4;spacingRight=4;overflow=hidden;rotatable=0;points=[[0,0.5],[1,0.5]];portConstraint=eastwest;" parent="zECMSTrlHyAf7nlXOJFm-15" vertex="1"><mxGeometry y="48" width="140" height="26" as="geometry"/></mxCell><mxCell id="zECMSTrlHyAf7nlXOJFm-18" value="+ field: type" style="text;strokeColor=none;fillColor=none;align=left;verticalAlign=top;spacingLeft=4;spacingRight=4;overflow=hidden;rotatable=0;points=[[0,0.5],[1,0.5]];portConstraint=eastwest;" parent="zECMSTrlHyAf7nlXOJFm-15" vertex="1"><mxGeometry y="74" width="140" height="26" as="geometry"/></mxCell><mxCell id="zECMSTrlHyAf7nlXOJFm-31" style="edgeStyle=orthogonalEdgeStyle;rounded=0;orthogonalLoop=1;jettySize=auto;html=1;dashed=1;endArrow=block;endFill=0;" parent="WIyWlLk6GJQsqaUBKTNV-1" source="zECMSTrlHyAf7nlXOJFm-27" target="zECMSTrlHyAf7nlXOJFm-15" edge="1"><mxGeometry relative="1" as="geometry"/></mxCell><mxCell id="0sasi5P2bXQHsRamXWZM-4" style="edgeStyle=orthogonalEdgeStyle;rounded=0;orthogonalLoop=1;jettySize=auto;html=1;endArrow=classic;endFill=1;entryX=0.5;entryY=0;entryDx=0;entryDy=0;exitX=0;exitY=0.136;exitDx=0;exitDy=0;exitPerimeter=0;" parent="WIyWlLk6GJQsqaUBKTNV-1" source="zECMSTrlHyAf7nlXOJFm-27" target="53aYOWAiFv5IG5gvppw0-69" edge="1"><mxGeometry relative="1" as="geometry"><Array as="points"><mxPoint x="2120" y="697"/></Array></mxGeometry></mxCell><mxCell id="0sasi5P2bXQHsRamXWZM-5" style="edgeStyle=orthogonalEdgeStyle;rounded=0;orthogonalLoop=1;jettySize=auto;html=1;endArrow=classic;endFill=1;entryX=0.5;entryY=0;entryDx=0;entryDy=0;" parent="WIyWlLk6GJQsqaUBKTNV-1" source="zECMSTrlHyAf7nlXOJFm-27" target="MnSly73IpkCCnpyBKUiG-0" edge="1"><mxGeometry relative="1" as="geometry"><Array as="points"><mxPoint x="2490" y="742"/></Array><mxPoint x="2068" y="1302" as="targetPoint"/></mxGeometry></mxCell><mxCell id="zECMSTrlHyAf7nlXOJFm-27" value="PowerSegment" style="swimlane;fontStyle=1;align=center;verticalAlign=top;childLayout=stackLayout;horizontal=1;startSize=26;horizontalStack=0;resizeParent=1;resizeParentMax=0;resizeLast=0;collapsible=1;marginBottom=0;" parent="WIyWlLk6GJQsqaUBKTNV-1" vertex="1"><mxGeometry x="2608" y="682" width="160" height="110" as="geometry"/></mxCell><mxCell id="zECMSTrlHyAf7nlXOJFm-28" value="+ field: type" style="text;strokeColor=none;fillColor=none;align=left;verticalAlign=top;spacingLeft=4;spacingRight=4;overflow=hidden;rotatable=0;points=[[0,0.5],[1,0.5]];portConstraint=eastwest;" parent="zECMSTrlHyAf7nlXOJFm-27" vertex="1"><mxGeometry y="26" width="160" height="26" as="geometry"/></mxCell><mxCell id="zECMSTrlHyAf7nlXOJFm-29" value="" style="line;strokeWidth=1;fillColor=none;align=left;verticalAlign=middle;spacingTop=-1;spacingLeft=3;spacingRight=3;rotatable=0;labelPosition=right;points=[];portConstraint=eastwest;" parent="zECMSTrlHyAf7nlXOJFm-27" vertex="1"><mxGeometry y="52" width="160" height="8" as="geometry"/></mxCell><mxCell id="zECMSTrlHyAf7nlXOJFm-30" value="+ PowerGeneration(int)&#10;+ RequestPower(int):int" style="text;strokeColor=none;fillColor=none;align=left;verticalAlign=top;spacingLeft=4;spacingRight=4;overflow=hidden;rotatable=0;points=[[0,0.5],[1,0.5]];portConstraint=eastwest;" parent="zECMSTrlHyAf7nlXOJFm-27" vertex="1"><mxGeometry y="60" width="160" height="50" as="geometry"/></mxCell><mxCell id="zECMSTrlHyAf7nlXOJFm-90" value="IInstallationInventory" style="swimlane;fontStyle=0;childLayout=stackLayout;horizontal=1;startSize=26;fillColor=none;horizontalStack=0;resizeParent=1;resizeParentMax=0;resizeLast=0;collapsible=1;marginBottom=0;" parent="WIyWlLk6GJQsqaUBKTNV-1" vertex="1"><mxGeometry x="1437.5" y="900" width="170" height="70" as="geometry"/></mxCell><mxCell id="zECMSTrlHyAf7nlXOJFm-91" value="+ InsertItem(Item) : bool" style="text;strokeColor=none;fillColor=none;align=left;verticalAlign=top;spacingLeft=4;spacingRight=4;overflow=hidden;rotatable=0;points=[[0,0.5],[1,0.5]];portConstraint=eastwest;" parent="zECMSTrlHyAf7nlXOJFm-90" vertex="1"><mxGeometry y="26" width="170" height="22" as="geometry"/></mxCell><mxCell id="zECMSTrlHyAf7nlXOJFm-92" value="+ GetAllInventory(): inventory" style="text;strokeColor=none;fillColor=none;align=left;verticalAlign=top;spacingLeft=4;spacingRight=4;overflow=hidden;rotatable=0;points=[[0,0.5],[1,0.5]];portConstraint=eastwest;" parent="zECMSTrlHyAf7nlXOJFm-90" vertex="1"><mxGeometry y="48" width="170" height="22" as="geometry"/></mxCell><mxCell id="MnSly73IpkCCnpyBKUiG-0" value="IGenerator" style="swimlane;fontStyle=0;childLayout=stackLayout;horizontal=1;startSize=26;fillColor=none;horizontalStack=0;resizeParent=1;resizeParentMax=0;resizeLast=0;collapsible=1;marginBottom=0;" parent="WIyWlLk6GJQsqaUBKTNV-1" vertex="1"><mxGeometry x="2400" y="872" width="180" height="110" as="geometry"/></mxCell><mxCell id="MnSly73IpkCCnpyBKUiG-1" value="+ GetState: type" style="text;strokeColor=none;fillColor=none;align=left;verticalAlign=top;spacingLeft=4;spacingRight=4;overflow=hidden;rotatable=0;points=[[0,0.5],[1,0.5]];portConstraint=eastwest;" parent="MnSly73IpkCCnpyBKUiG-0" vertex="1"><mxGeometry y="26" width="180" height="26" as="geometry"/></mxCell><mxCell id="MnSly73IpkCCnpyBKUiG-5" value="+ GetPowerAmount(): double" style="text;strokeColor=none;fillColor=none;align=left;verticalAlign=top;spacingLeft=4;spacingRight=4;overflow=hidden;rotatable=0;points=[[0,0.5],[1,0.5]];portConstraint=eastwest;" parent="MnSly73IpkCCnpyBKUiG-0" vertex="1"><mxGeometry y="52" width="180" height="26" as="geometry"/></mxCell><mxCell id="MnSly73IpkCCnpyBKUiG-23" value="- RunProcess()" style="text;strokeColor=none;fillColor=none;align=left;verticalAlign=top;spacingLeft=4;spacingRight=4;overflow=hidden;rotatable=0;points=[[0,0.5],[1,0.5]];portConstraint=eastwest;" parent="MnSly73IpkCCnpyBKUiG-0" vertex="1"><mxGeometry y="78" width="180" height="32" as="geometry"/></mxCell><mxCell id="MnSly73IpkCCnpyBKUiG-12" value="InstallationBase" style="swimlane;fontStyle=1;align=center;verticalAlign=top;childLayout=stackLayout;horizontal=1;startSize=26;horizontalStack=0;resizeParent=1;resizeParentMax=0;resizeLast=0;collapsible=1;marginBottom=0;" parent="WIyWlLk6GJQsqaUBKTNV-1" vertex="1"><mxGeometry x="1417.5" y="1030" width="210" height="150" as="geometry"><mxRectangle x="1700" y="640" width="110" height="26" as="alternateBounds"/></mxGeometry></mxCell><mxCell id="MnSly73IpkCCnpyBKUiG-13" value="- InstallationID : int&#10;" style="text;strokeColor=none;fillColor=none;align=left;verticalAlign=top;spacingLeft=4;spacingRight=4;overflow=hidden;rotatable=0;points=[[0,0.5],[1,0.5]];portConstraint=eastwest;" parent="MnSly73IpkCCnpyBKUiG-12" vertex="1"><mxGeometry y="26" width="210" height="34" as="geometry"/></mxCell><mxCell id="AP9-t7n59ZUtSHenOmkU-28" value="- GUID : GUID" style="text;strokeColor=none;fillColor=none;align=left;verticalAlign=top;spacingLeft=4;spacingRight=4;overflow=hidden;rotatable=0;points=[[0,0.5],[1,0.5]];portConstraint=eastwest;" parent="MnSly73IpkCCnpyBKUiG-12" vertex="1"><mxGeometry y="60" width="210" height="30" as="geometry"/></mxCell><mxCell id="MnSly73IpkCCnpyBKUiG-14" value="" style="line;strokeWidth=1;fillColor=none;align=left;verticalAlign=middle;spacingTop=-1;spacingLeft=3;spacingRight=3;rotatable=0;labelPosition=right;points=[];portConstraint=eastwest;" parent="MnSly73IpkCCnpyBKUiG-12" vertex="1"><mxGeometry y="90" width="210" height="8" as="geometry"/></mxCell><mxCell id="MnSly73IpkCCnpyBKUiG-15" value="+ GetGUID: GUID" style="text;strokeColor=none;fillColor=none;align=left;verticalAlign=top;spacingLeft=4;spacingRight=4;overflow=hidden;rotatable=0;points=[[0,0.5],[1,0.5]];portConstraint=eastwest;" parent="MnSly73IpkCCnpyBKUiG-12" vertex="1"><mxGeometry y="98" width="210" height="26" as="geometry"/></mxCell><mxCell id="MnSly73IpkCCnpyBKUiG-16" value="+ GetInstallationID : int" style="text;strokeColor=none;fillColor=none;align=left;verticalAlign=top;spacingLeft=4;spacingRight=4;overflow=hidden;rotatable=0;points=[[0,0.5],[1,0.5]];portConstraint=eastwest;" parent="MnSly73IpkCCnpyBKUiG-12" vertex="1"><mxGeometry y="124" width="210" height="26" as="geometry"/></mxCell><mxCell id="zR1_Um7Nxsu970KyKFXs-0" value="IMiner" style="swimlane;fontStyle=0;childLayout=stackLayout;horizontal=1;startSize=26;fillColor=none;horizontalStack=0;resizeParent=1;resizeParentMax=0;resizeLast=0;collapsible=1;marginBottom=0;" parent="WIyWlLk6GJQsqaUBKTNV-1" vertex="1"><mxGeometry x="2628" y="872" width="140" height="80" as="geometry"/></mxCell><mxCell id="zR1_Um7Nxsu970KyKFXs-1" value="+ GetState: type&#10;+ SupplyPower(double)" style="text;strokeColor=none;fillColor=none;align=left;verticalAlign=top;spacingLeft=4;spacingRight=4;overflow=hidden;rotatable=0;points=[[0,0.5],[1,0.5]];portConstraint=eastwest;" parent="zR1_Um7Nxsu970KyKFXs-0" vertex="1"><mxGeometry y="26" width="140" height="34" as="geometry"/></mxCell><mxCell id="zR1_Um7Nxsu970KyKFXs-2" value="- RunProcess()" style="text;strokeColor=none;fillColor=none;align=left;verticalAlign=top;spacingLeft=4;spacingRight=4;overflow=hidden;rotatable=0;points=[[0,0.5],[1,0.5]];portConstraint=eastwest;" parent="zR1_Um7Nxsu970KyKFXs-0" vertex="1"><mxGeometry y="60" width="140" height="20" as="geometry"/></mxCell><mxCell id="Ij8WtFHLakHTDqIk3v4Q-14" style="edgeStyle=orthogonalEdgeStyle;rounded=0;orthogonalLoop=1;jettySize=auto;html=1;endArrow=classic;endFill=1;" parent="WIyWlLk6GJQsqaUBKTNV-1" source="Vx5W6TjMWi8XEx1QrwoT-0" target="zECMSTrlHyAf7nlXOJFm-9" edge="1"><mxGeometry relative="1" as="geometry"/></mxCell><mxCell id="bKio8j04jmM2YxtdDzjN-47" style="edgeStyle=orthogonalEdgeStyle;rounded=0;orthogonalLoop=1;jettySize=auto;html=1;endArrow=classic;endFill=1;" parent="WIyWlLk6GJQsqaUBKTNV-1" source="Vx5W6TjMWi8XEx1QrwoT-0" target="bKio8j04jmM2YxtdDzjN-13" edge="1"><mxGeometry relative="1" as="geometry"><Array as="points"><mxPoint x="2000" y="956"/></Array></mxGeometry></mxCell><mxCell id="bKio8j04jmM2YxtdDzjN-49" style="edgeStyle=orthogonalEdgeStyle;rounded=0;orthogonalLoop=1;jettySize=auto;html=1;endArrow=classic;endFill=1;" parent="WIyWlLk6GJQsqaUBKTNV-1" source="Vx5W6TjMWi8XEx1QrwoT-0" target="bKio8j04jmM2YxtdDzjN-4" edge="1"><mxGeometry relative="1" as="geometry"><Array as="points"><mxPoint x="2000" y="956"/><mxPoint x="2000" y="260"/><mxPoint x="2210" y="260"/></Array></mxGeometry></mxCell><mxCell id="Vx5W6TjMWi8XEx1QrwoT-0" value="MacineInventory" style="swimlane;fontStyle=1;align=center;verticalAlign=top;childLayout=stackLayout;horizontal=1;startSize=26;horizontalStack=0;resizeParent=1;resizeParentMax=0;resizeLast=0;collapsible=1;marginBottom=0;" parent="WIyWlLk6GJQsqaUBKTNV-1" vertex="1"><mxGeometry x="1800" y="900" width="160" height="112" as="geometry"/></mxCell><mxCell id="QPQvuJK70-VGoZrN7Gn3-0" value="- ItemStack[] : InputSlot&#10;" style="text;strokeColor=none;fillColor=none;align=left;verticalAlign=top;spacingLeft=4;spacingRight=4;overflow=hidden;rotatable=0;points=[[0,0.5],[1,0.5]];portConstraint=eastwest;" parent="Vx5W6TjMWi8XEx1QrwoT-0" vertex="1"><mxGeometry y="26" width="160" height="26" as="geometry"/></mxCell><mxCell id="Vx5W6TjMWi8XEx1QrwoT-1" value="- ItemStack[] : OutputSlot" style="text;strokeColor=none;fillColor=none;align=left;verticalAlign=top;spacingLeft=4;spacingRight=4;overflow=hidden;rotatable=0;points=[[0,0.5],[1,0.5]];portConstraint=eastwest;" parent="Vx5W6TjMWi8XEx1QrwoT-0" vertex="1"><mxGeometry y="52" width="160" height="26" as="geometry"/></mxCell><mxCell id="Vx5W6TjMWi8XEx1QrwoT-2" value="" style="line;strokeWidth=1;fillColor=none;align=left;verticalAlign=middle;spacingTop=-1;spacingLeft=3;spacingRight=3;rotatable=0;labelPosition=right;points=[];portConstraint=eastwest;" parent="Vx5W6TjMWi8XEx1QrwoT-0" vertex="1"><mxGeometry y="78" width="160" height="8" as="geometry"/></mxCell><mxCell id="Vx5W6TjMWi8XEx1QrwoT-3" value="+ method(type): type" style="text;strokeColor=none;fillColor=none;align=left;verticalAlign=top;spacingLeft=4;spacingRight=4;overflow=hidden;rotatable=0;points=[[0,0.5],[1,0.5]];portConstraint=eastwest;" parent="Vx5W6TjMWi8XEx1QrwoT-0" vertex="1"><mxGeometry y="86" width="160" height="26" as="geometry"/></mxCell><mxCell id="PVxhERYW2FewQYSVhjZq-33" style="edgeStyle=orthogonalEdgeStyle;rounded=0;orthogonalLoop=1;jettySize=auto;html=1;endArrow=classic;endFill=1;" parent="WIyWlLk6GJQsqaUBKTNV-1" source="zECMSTrlHyAf7nlXOJFm-9" target="PVxhERYW2FewQYSVhjZq-21" edge="1"><mxGeometry relative="1" as="geometry"><mxPoint x="1770" y="590" as="targetPoint"/><Array as="points"><mxPoint x="1840" y="599"/></Array></mxGeometry></mxCell><mxCell id="PVxhERYW2FewQYSVhjZq-34" style="edgeStyle=orthogonalEdgeStyle;rounded=0;orthogonalLoop=1;jettySize=auto;html=1;endArrow=classic;endFill=1;" parent="WIyWlLk6GJQsqaUBKTNV-1" source="zECMSTrlHyAf7nlXOJFm-9" target="PVxhERYW2FewQYSVhjZq-7" edge="1"><mxGeometry relative="1" as="geometry"><Array as="points"><mxPoint x="1860" y="429"/></Array></mxGeometry></mxCell><mxCell id="zECMSTrlHyAf7nlXOJFm-9" value="MacineRunProcess" style="swimlane;fontStyle=1;align=center;verticalAlign=top;childLayout=stackLayout;horizontal=1;startSize=26;horizontalStack=0;resizeParent=1;resizeParentMax=0;resizeLast=0;collapsible=1;marginBottom=0;" parent="WIyWlLk6GJQsqaUBKTNV-1" vertex="1"><mxGeometry x="1780" y="780" width="200" height="60" as="geometry"/></mxCell><mxCell id="zECMSTrlHyAf7nlXOJFm-11" value="" style="line;strokeWidth=1;fillColor=none;align=left;verticalAlign=middle;spacingTop=-1;spacingLeft=3;spacingRight=3;rotatable=0;labelPosition=right;points=[];portConstraint=eastwest;" parent="zECMSTrlHyAf7nlXOJFm-9" vertex="1"><mxGeometry y="26" width="200" height="8" as="geometry"/></mxCell><mxCell id="PVxhERYW2FewQYSVhjZq-14" value="- RunProcess()" style="text;strokeColor=none;fillColor=none;align=left;verticalAlign=top;spacingLeft=4;spacingRight=4;overflow=hidden;rotatable=0;points=[[0,0.5],[1,0.5]];portConstraint=eastwest;" parent="zECMSTrlHyAf7nlXOJFm-9" vertex="1"><mxGeometry y="34" width="200" height="26" as="geometry"/></mxCell><mxCell id="Vx5W6TjMWi8XEx1QrwoT-6" style="edgeStyle=orthogonalEdgeStyle;rounded=0;orthogonalLoop=1;jettySize=auto;html=1;dashed=1;endArrow=block;endFill=0;" parent="WIyWlLk6GJQsqaUBKTNV-1" source="Vx5W6TjMWi8XEx1QrwoT-0" target="zECMSTrlHyAf7nlXOJFm-90" edge="1"><mxGeometry relative="1" as="geometry"><mxPoint x="1510" y="917" as="sourcePoint"/><mxPoint x="1739" y="706" as="targetPoint"/><Array as="points"><mxPoint x="1730" y="940"/><mxPoint x="1730" y="940"/></Array></mxGeometry></mxCell><mxCell id="Vx5W6TjMWi8XEx1QrwoT-15" style="edgeStyle=orthogonalEdgeStyle;rounded=0;orthogonalLoop=1;jettySize=auto;html=1;endArrow=block;endFill=0;dashed=1;" parent="WIyWlLk6GJQsqaUBKTNV-1" source="Vx5W6TjMWi8XEx1QrwoT-11" target="MnSly73IpkCCnpyBKUiG-12" edge="1"><mxGeometry relative="1" as="geometry"><Array as="points"><mxPoint x="1590" y="1116"/></Array></mxGeometry></mxCell><mxCell id="WFD14s_10ghxo7HNn81i-10" style="edgeStyle=orthogonalEdgeStyle;rounded=0;orthogonalLoop=1;jettySize=auto;html=1;endArrow=classic;endFill=1;" parent="WIyWlLk6GJQsqaUBKTNV-1" source="Vx5W6TjMWi8XEx1QrwoT-11" target="Vx5W6TjMWi8XEx1QrwoT-0" edge="1"><mxGeometry relative="1" as="geometry"><Array as="points"><mxPoint x="1870" y="1020"/><mxPoint x="1870" y="1020"/></Array></mxGeometry></mxCell><mxCell id="Ij8WtFHLakHTDqIk3v4Q-13" style="edgeStyle=orthogonalEdgeStyle;rounded=0;orthogonalLoop=1;jettySize=auto;html=1;endArrow=block;endFill=0;dashed=1;" parent="WIyWlLk6GJQsqaUBKTNV-1" source="Vx5W6TjMWi8XEx1QrwoT-11" target="WFD14s_10ghxo7HNn81i-4" edge="1"><mxGeometry relative="1" as="geometry"/></mxCell><mxCell id="Vx5W6TjMWi8XEx1QrwoT-11" value="MacineInstllation" style="swimlane;fontStyle=1;align=center;verticalAlign=top;childLayout=stackLayout;horizontal=1;startSize=26;horizontalStack=0;resizeParent=1;resizeParentMax=0;resizeLast=0;collapsible=1;marginBottom=0;" parent="WIyWlLk6GJQsqaUBKTNV-1" vertex="1"><mxGeometry x="1790" y="1073" width="160" height="86" as="geometry"/></mxCell><mxCell id="Vx5W6TjMWi8XEx1QrwoT-12" value="+ field: type" style="text;strokeColor=none;fillColor=none;align=left;verticalAlign=top;spacingLeft=4;spacingRight=4;overflow=hidden;rotatable=0;points=[[0,0.5],[1,0.5]];portConstraint=eastwest;" parent="Vx5W6TjMWi8XEx1QrwoT-11" vertex="1"><mxGeometry y="26" width="160" height="26" as="geometry"/></mxCell><mxCell id="Vx5W6TjMWi8XEx1QrwoT-13" value="" style="line;strokeWidth=1;fillColor=none;align=left;verticalAlign=middle;spacingTop=-1;spacingLeft=3;spacingRight=3;rotatable=0;labelPosition=right;points=[];portConstraint=eastwest;" parent="Vx5W6TjMWi8XEx1QrwoT-11" vertex="1"><mxGeometry y="52" width="160" height="8" as="geometry"/></mxCell><mxCell id="Vx5W6TjMWi8XEx1QrwoT-14" value="+ method(type): type" style="text;strokeColor=none;fillColor=none;align=left;verticalAlign=top;spacingLeft=4;spacingRight=4;overflow=hidden;rotatable=0;points=[[0,0.5],[1,0.5]];portConstraint=eastwest;" parent="Vx5W6TjMWi8XEx1QrwoT-11" vertex="1"><mxGeometry y="60" width="160" height="26" as="geometry"/></mxCell><mxCell id="WFD14s_10ghxo7HNn81i-8" style="edgeStyle=orthogonalEdgeStyle;rounded=0;orthogonalLoop=1;jettySize=auto;html=1;dashed=1;endArrow=block;endFill=0;" parent="WIyWlLk6GJQsqaUBKTNV-1" source="zECMSTrlHyAf7nlXOJFm-34" target="MnSly73IpkCCnpyBKUiG-12" edge="1"><mxGeometry relative="1" as="geometry"><Array as="points"><mxPoint x="1320" y="1105"/><mxPoint x="1320" y="1105"/></Array></mxGeometry></mxCell><mxCell id="Ij8WtFHLakHTDqIk3v4Q-9" style="edgeStyle=orthogonalEdgeStyle;rounded=0;orthogonalLoop=1;jettySize=auto;html=1;dashed=1;endArrow=block;endFill=0;" parent="WIyWlLk6GJQsqaUBKTNV-1" source="zECMSTrlHyAf7nlXOJFm-34" target="zECMSTrlHyAf7nlXOJFm-39" edge="1"><mxGeometry relative="1" as="geometry"/></mxCell><mxCell id="Ij8WtFHLakHTDqIk3v4Q-10" style="edgeStyle=orthogonalEdgeStyle;rounded=0;orthogonalLoop=1;jettySize=auto;html=1;endArrow=classic;endFill=1;" parent="WIyWlLk6GJQsqaUBKTNV-1" source="zECMSTrlHyAf7nlXOJFm-34" target="Ij8WtFHLakHTDqIk3v4Q-4" edge="1"><mxGeometry relative="1" as="geometry"/></mxCell><mxCell id="zECMSTrlHyAf7nlXOJFm-34" value="BeltConveyor" style="swimlane;fontStyle=1;align=center;verticalAlign=top;childLayout=stackLayout;horizontal=1;startSize=26;horizontalStack=0;resizeParent=1;resizeParentMax=0;resizeLast=0;collapsible=1;marginBottom=0;" parent="WIyWlLk6GJQsqaUBKTNV-1" vertex="1"><mxGeometry x="1060" y="1073" width="220" height="64" as="geometry"><mxRectangle x="1700" y="640" width="110" height="26" as="alternateBounds"/></mxGeometry></mxCell><mxCell id="MnSly73IpkCCnpyBKUiG-19" value="- Connected : IInstallationInventory" style="text;strokeColor=none;fillColor=none;align=left;verticalAlign=top;spacingLeft=4;spacingRight=4;overflow=hidden;rotatable=0;points=[[0,0.5],[1,0.5]];portConstraint=eastwest;" parent="zECMSTrlHyAf7nlXOJFm-34" vertex="1"><mxGeometry y="26" width="220" height="30" as="geometry"/></mxCell><mxCell id="zECMSTrlHyAf7nlXOJFm-36" value="" style="line;strokeWidth=1;fillColor=none;align=left;verticalAlign=middle;spacingTop=-1;spacingLeft=3;spacingRight=3;rotatable=0;labelPosition=right;points=[];portConstraint=eastwest;" parent="zECMSTrlHyAf7nlXOJFm-34" vertex="1"><mxGeometry y="56" width="220" height="8" as="geometry"/></mxCell><mxCell id="zECMSTrlHyAf7nlXOJFm-39" value="IBeltConveyor" style="swimlane;fontStyle=0;childLayout=stackLayout;horizontal=1;startSize=26;fillColor=none;horizontalStack=0;resizeParent=1;resizeParentMax=0;resizeLast=0;collapsible=1;marginBottom=0;" parent="WIyWlLk6GJQsqaUBKTNV-1" vertex="1"><mxGeometry x="790" y="1079" width="180" height="52" as="geometry"/></mxCell><mxCell id="zECMSTrlHyAf7nlXOJFm-40" value="+ GetState: BeltConveyorState" style="text;strokeColor=none;fillColor=none;align=left;verticalAlign=top;spacingLeft=4;spacingRight=4;overflow=hidden;rotatable=0;points=[[0,0.5],[1,0.5]];portConstraint=eastwest;" parent="zECMSTrlHyAf7nlXOJFm-39" vertex="1"><mxGeometry y="26" width="180" height="26" as="geometry"/></mxCell><mxCell id="Ij8WtFHLakHTDqIk3v4Q-3" style="edgeStyle=orthogonalEdgeStyle;rounded=0;orthogonalLoop=1;jettySize=auto;html=1;dashed=1;endArrow=block;endFill=0;" parent="WIyWlLk6GJQsqaUBKTNV-1" source="Ij8WtFHLakHTDqIk3v4Q-0" target="zECMSTrlHyAf7nlXOJFm-90" edge="1"><mxGeometry relative="1" as="geometry"/></mxCell><mxCell id="Ij8WtFHLakHTDqIk3v4Q-0" value="NullIInstallationInventory" style="swimlane;fontStyle=0;childLayout=stackLayout;horizontal=1;startSize=26;fillColor=none;horizontalStack=0;resizeParent=1;resizeParentMax=0;resizeLast=0;collapsible=1;marginBottom=0;" parent="WIyWlLk6GJQsqaUBKTNV-1" vertex="1"><mxGeometry x="1437.5" y="752" width="170" height="48" as="geometry"/></mxCell><mxCell id="Ij8WtFHLakHTDqIk3v4Q-8" style="edgeStyle=orthogonalEdgeStyle;rounded=0;orthogonalLoop=1;jettySize=auto;html=1;dashed=1;endArrow=block;endFill=0;" parent="WIyWlLk6GJQsqaUBKTNV-1" source="Ij8WtFHLakHTDqIk3v4Q-4" target="zECMSTrlHyAf7nlXOJFm-90" edge="1"><mxGeometry relative="1" as="geometry"/></mxCell><mxCell id="Ij8WtFHLakHTDqIk3v4Q-4" value="MoveBeltConveyor" style="swimlane;fontStyle=1;align=center;verticalAlign=top;childLayout=stackLayout;horizontal=1;startSize=26;horizontalStack=0;resizeParent=1;resizeParentMax=0;resizeLast=0;collapsible=1;marginBottom=0;" parent="WIyWlLk6GJQsqaUBKTNV-1" vertex="1"><mxGeometry x="1070" y="905" width="200" height="60" as="geometry"/></mxCell><mxCell id="Ij8WtFHLakHTDqIk3v4Q-6" value="" style="line;strokeWidth=1;fillColor=none;align=left;verticalAlign=middle;spacingTop=-1;spacingLeft=3;spacingRight=3;rotatable=0;labelPosition=right;points=[];portConstraint=eastwest;" parent="Ij8WtFHLakHTDqIk3v4Q-4" vertex="1"><mxGeometry y="26" width="200" height="8" as="geometry"/></mxCell><mxCell id="PVxhERYW2FewQYSVhjZq-15" value="- RunProcess()" style="text;strokeColor=none;fillColor=none;align=left;verticalAlign=top;spacingLeft=4;spacingRight=4;overflow=hidden;rotatable=0;points=[[0,0.5],[1,0.5]];portConstraint=eastwest;" parent="Ij8WtFHLakHTDqIk3v4Q-4" vertex="1"><mxGeometry y="34" width="200" height="26" as="geometry"/></mxCell><mxCell id="PVxhERYW2FewQYSVhjZq-13" style="edgeStyle=orthogonalEdgeStyle;rounded=0;orthogonalLoop=1;jettySize=auto;html=1;dashed=1;endArrow=block;endFill=0;" parent="WIyWlLk6GJQsqaUBKTNV-1" source="PVxhERYW2FewQYSVhjZq-4" target="PVxhERYW2FewQYSVhjZq-7" edge="1"><mxGeometry relative="1" as="geometry"><Array as="points"><mxPoint x="1440" y="300"/><mxPoint x="1530" y="300"/></Array></mxGeometry></mxCell><mxCell id="PVxhERYW2FewQYSVhjZq-4" value="ItemStack" style="swimlane;fontStyle=1;align=center;verticalAlign=top;childLayout=stackLayout;horizontal=1;startSize=26;horizontalStack=0;resizeParent=1;resizeParentMax=0;resizeLast=0;collapsible=1;marginBottom=0;" parent="WIyWlLk6GJQsqaUBKTNV-1" vertex="1"><mxGeometry x="1380" y="200" width="140" height="60" as="geometry"/></mxCell><mxCell id="PVxhERYW2FewQYSVhjZq-5" value="- RunProcess()" style="text;strokeColor=none;fillColor=none;align=left;verticalAlign=top;spacingLeft=4;spacingRight=4;overflow=hidden;rotatable=0;points=[[0,0.5],[1,0.5]];portConstraint=eastwest;" parent="PVxhERYW2FewQYSVhjZq-4" vertex="1"><mxGeometry y="26" width="140" height="26" as="geometry"/></mxCell><mxCell id="PVxhERYW2FewQYSVhjZq-6" value="" style="line;strokeWidth=1;fillColor=none;align=left;verticalAlign=middle;spacingTop=-1;spacingLeft=3;spacingRight=3;rotatable=0;labelPosition=right;points=[];portConstraint=eastwest;" parent="PVxhERYW2FewQYSVhjZq-4" vertex="1"><mxGeometry y="52" width="140" height="8" as="geometry"/></mxCell><mxCell id="PVxhERYW2FewQYSVhjZq-30" style="edgeStyle=orthogonalEdgeStyle;rounded=0;orthogonalLoop=1;jettySize=auto;html=1;endArrow=classic;endFill=1;" parent="WIyWlLk6GJQsqaUBKTNV-1" source="PVxhERYW2FewQYSVhjZq-7" target="PVxhERYW2FewQYSVhjZq-21" edge="1"><mxGeometry relative="1" as="geometry"><Array as="points"><mxPoint x="1540" y="518"/><mxPoint x="1540" y="518"/></Array></mxGeometry></mxCell><mxCell id="PVxhERYW2FewQYSVhjZq-7" value="IItemStack" style="swimlane;fontStyle=1;align=center;verticalAlign=top;childLayout=stackLayout;horizontal=1;startSize=26;horizontalStack=0;resizeParent=1;resizeParentMax=0;resizeLast=0;collapsible=1;marginBottom=0;" parent="WIyWlLk6GJQsqaUBKTNV-1" vertex="1"><mxGeometry x="1430" y="358" width="200" height="138" as="geometry"/></mxCell><mxCell id="PVxhERYW2FewQYSVhjZq-11" value="+ ID : int" style="text;strokeColor=none;fillColor=none;align=left;verticalAlign=top;spacingLeft=4;spacingRight=4;overflow=hidden;rotatable=0;points=[[0,0.5],[1,0.5]];portConstraint=eastwest;" parent="PVxhERYW2FewQYSVhjZq-7" vertex="1"><mxGeometry y="26" width="200" height="26" as="geometry"/></mxCell><mxCell id="PVxhERYW2FewQYSVhjZq-8" value="+ Amount: int" style="text;strokeColor=none;fillColor=none;align=left;verticalAlign=top;spacingLeft=4;spacingRight=4;overflow=hidden;rotatable=0;points=[[0,0.5],[1,0.5]];portConstraint=eastwest;" parent="PVxhERYW2FewQYSVhjZq-7" vertex="1"><mxGeometry y="52" width="200" height="26" as="geometry"/></mxCell><mxCell id="PVxhERYW2FewQYSVhjZq-9" value="" style="line;strokeWidth=1;fillColor=none;align=left;verticalAlign=middle;spacingTop=-1;spacingLeft=3;spacingRight=3;rotatable=0;labelPosition=right;points=[];portConstraint=eastwest;" parent="PVxhERYW2FewQYSVhjZq-7" vertex="1"><mxGeometry y="78" width="200" height="8" as="geometry"/></mxCell><mxCell id="PVxhERYW2FewQYSVhjZq-10" value="+ addItem()" style="text;strokeColor=none;fillColor=none;align=left;verticalAlign=top;spacingLeft=4;spacingRight=4;overflow=hidden;rotatable=0;points=[[0,0.5],[1,0.5]];portConstraint=eastwest;" parent="PVxhERYW2FewQYSVhjZq-7" vertex="1"><mxGeometry y="86" width="200" height="26" as="geometry"/></mxCell><mxCell id="PVxhERYW2FewQYSVhjZq-12" value="+ subItem()" style="text;strokeColor=none;fillColor=none;align=left;verticalAlign=top;spacingLeft=4;spacingRight=4;overflow=hidden;rotatable=0;points=[[0,0.5],[1,0.5]];portConstraint=eastwest;" parent="PVxhERYW2FewQYSVhjZq-7" vertex="1"><mxGeometry y="112" width="200" height="26" as="geometry"/></mxCell><mxCell id="PVxhERYW2FewQYSVhjZq-20" style="edgeStyle=orthogonalEdgeStyle;rounded=0;orthogonalLoop=1;jettySize=auto;html=1;dashed=1;endArrow=block;endFill=0;" parent="WIyWlLk6GJQsqaUBKTNV-1" source="PVxhERYW2FewQYSVhjZq-17" target="PVxhERYW2FewQYSVhjZq-7" edge="1"><mxGeometry relative="1" as="geometry"><Array as="points"><mxPoint x="1640" y="298"/><mxPoint x="1550" y="298"/></Array></mxGeometry></mxCell><mxCell id="PVxhERYW2FewQYSVhjZq-17" value="NullItemStack" style="swimlane;fontStyle=1;align=center;verticalAlign=top;childLayout=stackLayout;horizontal=1;startSize=26;horizontalStack=0;resizeParent=1;resizeParentMax=0;resizeLast=0;collapsible=1;marginBottom=0;" parent="WIyWlLk6GJQsqaUBKTNV-1" vertex="1"><mxGeometry x="1560" y="200" width="130" height="60" as="geometry"/></mxCell><mxCell id="PVxhERYW2FewQYSVhjZq-18" value="- RunProcess()" style="text;strokeColor=none;fillColor=none;align=left;verticalAlign=top;spacingLeft=4;spacingRight=4;overflow=hidden;rotatable=0;points=[[0,0.5],[1,0.5]];portConstraint=eastwest;" parent="PVxhERYW2FewQYSVhjZq-17" vertex="1"><mxGeometry y="26" width="130" height="26" as="geometry"/></mxCell><mxCell id="PVxhERYW2FewQYSVhjZq-19" value="" style="line;strokeWidth=1;fillColor=none;align=left;verticalAlign=middle;spacingTop=-1;spacingLeft=3;spacingRight=3;rotatable=0;labelPosition=right;points=[];portConstraint=eastwest;" parent="PVxhERYW2FewQYSVhjZq-17" vertex="1"><mxGeometry y="52" width="130" height="8" as="geometry"/></mxCell><mxCell id="PVxhERYW2FewQYSVhjZq-31" style="edgeStyle=orthogonalEdgeStyle;rounded=0;orthogonalLoop=1;jettySize=auto;html=1;endArrow=classic;endFill=1;" parent="WIyWlLk6GJQsqaUBKTNV-1" source="PVxhERYW2FewQYSVhjZq-21" target="PVxhERYW2FewQYSVhjZq-7" edge="1"><mxGeometry relative="1" as="geometry"><Array as="points"><mxPoint x="1500" y="528"/><mxPoint x="1500" y="528"/></Array></mxGeometry></mxCell><mxCell id="PVxhERYW2FewQYSVhjZq-21" value="ItemProcessResult" style="swimlane;fontStyle=1;align=center;verticalAlign=top;childLayout=stackLayout;horizontal=1;startSize=26;horizontalStack=0;resizeParent=1;resizeParentMax=0;resizeLast=0;collapsible=1;marginBottom=0;" parent="WIyWlLk6GJQsqaUBKTNV-1" vertex="1"><mxGeometry x="1414" y="542" width="240" height="86" as="geometry"/></mxCell><mxCell id="PVxhERYW2FewQYSVhjZq-22" value="+ ReceiveItemStack : IItemStack" style="text;strokeColor=none;fillColor=none;align=left;verticalAlign=top;spacingLeft=4;spacingRight=4;overflow=hidden;rotatable=0;points=[[0,0.5],[1,0.5]];portConstraint=eastwest;" parent="PVxhERYW2FewQYSVhjZq-21" vertex="1"><mxGeometry y="26" width="240" height="26" as="geometry"/></mxCell><mxCell id="PVxhERYW2FewQYSVhjZq-27" value="+ ReceiveItemStack : MineItemStack" style="text;strokeColor=none;fillColor=none;align=left;verticalAlign=top;spacingLeft=4;spacingRight=4;overflow=hidden;rotatable=0;points=[[0,0.5],[1,0.5]];portConstraint=eastwest;" parent="PVxhERYW2FewQYSVhjZq-21" vertex="1"><mxGeometry y="52" width="240" height="26" as="geometry"/></mxCell><mxCell id="PVxhERYW2FewQYSVhjZq-23" value="" style="line;strokeWidth=1;fillColor=none;align=left;verticalAlign=middle;spacingTop=-1;spacingLeft=3;spacingRight=3;rotatable=0;labelPosition=right;points=[];portConstraint=eastwest;" parent="PVxhERYW2FewQYSVhjZq-21" vertex="1"><mxGeometry y="78" width="240" height="8" as="geometry"/></mxCell><mxCell id="bKio8j04jmM2YxtdDzjN-12" style="edgeStyle=orthogonalEdgeStyle;rounded=0;orthogonalLoop=1;jettySize=auto;html=1;" parent="WIyWlLk6GJQsqaUBKTNV-1" source="bKio8j04jmM2YxtdDzjN-4" target="bKio8j04jmM2YxtdDzjN-8" edge="1"><mxGeometry relative="1" as="geometry"><Array as="points"><mxPoint x="2458" y="149"/></Array></mxGeometry></mxCell><mxCell id="bKio8j04jmM2YxtdDzjN-17" style="edgeStyle=orthogonalEdgeStyle;rounded=0;orthogonalLoop=1;jettySize=auto;html=1;" parent="WIyWlLk6GJQsqaUBKTNV-1" source="bKio8j04jmM2YxtdDzjN-4" target="bKio8j04jmM2YxtdDzjN-13" edge="1"><mxGeometry relative="1" as="geometry"/></mxCell><mxCell id="bKio8j04jmM2YxtdDzjN-23" style="edgeStyle=orthogonalEdgeStyle;rounded=0;orthogonalLoop=1;jettySize=auto;html=1;endArrow=block;endFill=1;" parent="WIyWlLk6GJQsqaUBKTNV-1" source="bKio8j04jmM2YxtdDzjN-4" target="bKio8j04jmM2YxtdDzjN-18" edge="1"><mxGeometry relative="1" as="geometry"><mxPoint x="2560" y="-34" as="targetPoint"/><Array as="points"><mxPoint x="2220" y="50"/><mxPoint x="2220" y="50"/></Array></mxGeometry></mxCell><mxCell id="bKio8j04jmM2YxtdDzjN-4" value="MachineRecipeConfig" style="swimlane;fontStyle=1;align=center;verticalAlign=top;childLayout=stackLayout;horizontal=1;startSize=26;horizontalStack=0;resizeParent=1;resizeParentMax=0;resizeLast=0;collapsible=1;marginBottom=0;" parent="WIyWlLk6GJQsqaUBKTNV-1" vertex="1"><mxGeometry x="2140" y="106" width="160" height="86" as="geometry"/></mxCell><mxCell id="bKio8j04jmM2YxtdDzjN-5" value="+ field: type" style="text;strokeColor=none;fillColor=none;align=left;verticalAlign=top;spacingLeft=4;spacingRight=4;overflow=hidden;rotatable=0;points=[[0,0.5],[1,0.5]];portConstraint=eastwest;" parent="bKio8j04jmM2YxtdDzjN-4" vertex="1"><mxGeometry y="26" width="160" height="26" as="geometry"/></mxCell><mxCell id="bKio8j04jmM2YxtdDzjN-6" value="" style="line;strokeWidth=1;fillColor=none;align=left;verticalAlign=middle;spacingTop=-1;spacingLeft=3;spacingRight=3;rotatable=0;labelPosition=right;points=[];portConstraint=eastwest;" parent="bKio8j04jmM2YxtdDzjN-4" vertex="1"><mxGeometry y="52" width="160" height="8" as="geometry"/></mxCell><mxCell id="bKio8j04jmM2YxtdDzjN-7" value="+ method(type): type" style="text;strokeColor=none;fillColor=none;align=left;verticalAlign=top;spacingLeft=4;spacingRight=4;overflow=hidden;rotatable=0;points=[[0,0.5],[1,0.5]];portConstraint=eastwest;" parent="bKio8j04jmM2YxtdDzjN-4" vertex="1"><mxGeometry y="60" width="160" height="26" as="geometry"/></mxCell><mxCell id="bKio8j04jmM2YxtdDzjN-39" style="edgeStyle=orthogonalEdgeStyle;rounded=0;orthogonalLoop=1;jettySize=auto;html=1;endArrow=block;endFill=1;" parent="WIyWlLk6GJQsqaUBKTNV-1" source="bKio8j04jmM2YxtdDzjN-8" target="bKio8j04jmM2YxtdDzjN-35" edge="1"><mxGeometry relative="1" as="geometry"><Array as="points"><mxPoint x="2458" y="-110"/></Array></mxGeometry></mxCell><mxCell id="bKio8j04jmM2YxtdDzjN-45" style="edgeStyle=orthogonalEdgeStyle;rounded=0;orthogonalLoop=1;jettySize=auto;html=1;endArrow=classic;endFill=1;" parent="WIyWlLk6GJQsqaUBKTNV-1" source="bKio8j04jmM2YxtdDzjN-8" target="bKio8j04jmM2YxtdDzjN-41" edge="1"><mxGeometry relative="1" as="geometry"/></mxCell><mxCell id="bKio8j04jmM2YxtdDzjN-8" value="MachineRecipeJsonLoad" style="swimlane;fontStyle=1;align=center;verticalAlign=top;childLayout=stackLayout;horizontal=1;startSize=26;horizontalStack=0;resizeParent=1;resizeParentMax=0;resizeLast=0;collapsible=1;marginBottom=0;" parent="WIyWlLk6GJQsqaUBKTNV-1" vertex="1"><mxGeometry x="2368" y="-30" width="180" height="86" as="geometry"/></mxCell><mxCell id="bKio8j04jmM2YxtdDzjN-9" value="+ field: type" style="text;strokeColor=none;fillColor=none;align=left;verticalAlign=top;spacingLeft=4;spacingRight=4;overflow=hidden;rotatable=0;points=[[0,0.5],[1,0.5]];portConstraint=eastwest;" parent="bKio8j04jmM2YxtdDzjN-8" vertex="1"><mxGeometry y="26" width="180" height="26" as="geometry"/></mxCell><mxCell id="bKio8j04jmM2YxtdDzjN-10" value="" style="line;strokeWidth=1;fillColor=none;align=left;verticalAlign=middle;spacingTop=-1;spacingLeft=3;spacingRight=3;rotatable=0;labelPosition=right;points=[];portConstraint=eastwest;" parent="bKio8j04jmM2YxtdDzjN-8" vertex="1"><mxGeometry y="52" width="180" height="8" as="geometry"/></mxCell><mxCell id="bKio8j04jmM2YxtdDzjN-11" value="+ method(type): type" style="text;strokeColor=none;fillColor=none;align=left;verticalAlign=top;spacingLeft=4;spacingRight=4;overflow=hidden;rotatable=0;points=[[0,0.5],[1,0.5]];portConstraint=eastwest;" parent="bKio8j04jmM2YxtdDzjN-8" vertex="1"><mxGeometry y="60" width="180" height="26" as="geometry"/></mxCell><mxCell id="bKio8j04jmM2YxtdDzjN-13" value="IMachineRecipeData" style="swimlane;fontStyle=1;align=center;verticalAlign=top;childLayout=stackLayout;horizontal=1;startSize=26;horizontalStack=0;resizeParent=1;resizeParentMax=0;resizeLast=0;collapsible=1;marginBottom=0;" parent="WIyWlLk6GJQsqaUBKTNV-1" vertex="1"><mxGeometry x="1930" y="108" width="160" height="82" as="geometry"/></mxCell><mxCell id="bKio8j04jmM2YxtdDzjN-14" value="+ field: type" style="text;strokeColor=none;fillColor=none;align=left;verticalAlign=top;spacingLeft=4;spacingRight=4;overflow=hidden;rotatable=0;points=[[0,0.5],[1,0.5]];portConstraint=eastwest;" parent="bKio8j04jmM2YxtdDzjN-13" vertex="1"><mxGeometry y="26" width="160" height="22" as="geometry"/></mxCell><mxCell id="bKio8j04jmM2YxtdDzjN-15" value="" style="line;strokeWidth=1;fillColor=none;align=left;verticalAlign=middle;spacingTop=-1;spacingLeft=3;spacingRight=3;rotatable=0;labelPosition=right;points=[];portConstraint=eastwest;" parent="bKio8j04jmM2YxtdDzjN-13" vertex="1"><mxGeometry y="48" width="160" height="8" as="geometry"/></mxCell><mxCell id="bKio8j04jmM2YxtdDzjN-16" value="+ method(type): type" style="text;strokeColor=none;fillColor=none;align=left;verticalAlign=top;spacingLeft=4;spacingRight=4;overflow=hidden;rotatable=0;points=[[0,0.5],[1,0.5]];portConstraint=eastwest;" parent="bKio8j04jmM2YxtdDzjN-13" vertex="1"><mxGeometry y="56" width="160" height="26" as="geometry"/></mxCell><mxCell id="bKio8j04jmM2YxtdDzjN-22" style="edgeStyle=orthogonalEdgeStyle;rounded=0;orthogonalLoop=1;jettySize=auto;html=1;dashed=1;endArrow=block;endFill=0;" parent="WIyWlLk6GJQsqaUBKTNV-1" source="bKio8j04jmM2YxtdDzjN-18" target="bKio8j04jmM2YxtdDzjN-13" edge="1"><mxGeometry relative="1" as="geometry"><Array as="points"><mxPoint x="2030" y="-10"/></Array></mxGeometry></mxCell><mxCell id="bKio8j04jmM2YxtdDzjN-18" value="NullMachineRecipeData" style="swimlane;fontStyle=1;align=center;verticalAlign=top;childLayout=stackLayout;horizontal=1;startSize=26;horizontalStack=0;resizeParent=1;resizeParentMax=0;resizeLast=0;collapsible=1;marginBottom=0;" parent="WIyWlLk6GJQsqaUBKTNV-1" vertex="1"><mxGeometry x="2140" y="-40" width="160" height="86" as="geometry"/></mxCell><mxCell id="bKio8j04jmM2YxtdDzjN-19" value="+ field: type" style="text;strokeColor=none;fillColor=none;align=left;verticalAlign=top;spacingLeft=4;spacingRight=4;overflow=hidden;rotatable=0;points=[[0,0.5],[1,0.5]];portConstraint=eastwest;" parent="bKio8j04jmM2YxtdDzjN-18" vertex="1"><mxGeometry y="26" width="160" height="26" as="geometry"/></mxCell><mxCell id="bKio8j04jmM2YxtdDzjN-20" value="" style="line;strokeWidth=1;fillColor=none;align=left;verticalAlign=middle;spacingTop=-1;spacingLeft=3;spacingRight=3;rotatable=0;labelPosition=right;points=[];portConstraint=eastwest;" parent="bKio8j04jmM2YxtdDzjN-18" vertex="1"><mxGeometry y="52" width="160" height="8" as="geometry"/></mxCell><mxCell id="bKio8j04jmM2YxtdDzjN-21" value="+ method(type): type" style="text;strokeColor=none;fillColor=none;align=left;verticalAlign=top;spacingLeft=4;spacingRight=4;overflow=hidden;rotatable=0;points=[[0,0.5],[1,0.5]];portConstraint=eastwest;" parent="bKio8j04jmM2YxtdDzjN-18" vertex="1"><mxGeometry y="60" width="160" height="26" as="geometry"/></mxCell><mxCell id="bKio8j04jmM2YxtdDzjN-40" style="edgeStyle=orthogonalEdgeStyle;rounded=0;orthogonalLoop=1;jettySize=auto;html=1;endArrow=block;endFill=0;dashed=1;" parent="WIyWlLk6GJQsqaUBKTNV-1" source="bKio8j04jmM2YxtdDzjN-35" target="bKio8j04jmM2YxtdDzjN-13" edge="1"><mxGeometry relative="1" as="geometry"><Array as="points"><mxPoint x="1990" y="-117"/></Array></mxGeometry></mxCell><mxCell id="bKio8j04jmM2YxtdDzjN-35" value="MachineRecipeData" style="swimlane;fontStyle=1;align=center;verticalAlign=top;childLayout=stackLayout;horizontal=1;startSize=26;horizontalStack=0;resizeParent=1;resizeParentMax=0;resizeLast=0;collapsible=1;marginBottom=0;" parent="WIyWlLk6GJQsqaUBKTNV-1" vertex="1"><mxGeometry x="2140" y="-160" width="160" height="86" as="geometry"/></mxCell><mxCell id="bKio8j04jmM2YxtdDzjN-36" value="+ field: type" style="text;strokeColor=none;fillColor=none;align=left;verticalAlign=top;spacingLeft=4;spacingRight=4;overflow=hidden;rotatable=0;points=[[0,0.5],[1,0.5]];portConstraint=eastwest;" parent="bKio8j04jmM2YxtdDzjN-35" vertex="1"><mxGeometry y="26" width="160" height="26" as="geometry"/></mxCell><mxCell id="bKio8j04jmM2YxtdDzjN-37" value="" style="line;strokeWidth=1;fillColor=none;align=left;verticalAlign=middle;spacingTop=-1;spacingLeft=3;spacingRight=3;rotatable=0;labelPosition=right;points=[];portConstraint=eastwest;" parent="bKio8j04jmM2YxtdDzjN-35" vertex="1"><mxGeometry y="52" width="160" height="8" as="geometry"/></mxCell><mxCell id="bKio8j04jmM2YxtdDzjN-38" value="+ method(type): type" style="text;strokeColor=none;fillColor=none;align=left;verticalAlign=top;spacingLeft=4;spacingRight=4;overflow=hidden;rotatable=0;points=[[0,0.5],[1,0.5]];portConstraint=eastwest;" parent="bKio8j04jmM2YxtdDzjN-35" vertex="1"><mxGeometry y="60" width="160" height="26" as="geometry"/></mxCell><mxCell id="bKio8j04jmM2YxtdDzjN-41" value="PurseJsonMachineRecipes" style="swimlane;fontStyle=1;align=center;verticalAlign=top;childLayout=stackLayout;horizontal=1;startSize=26;horizontalStack=0;resizeParent=1;resizeParentMax=0;resizeLast=0;collapsible=1;marginBottom=0;" parent="WIyWlLk6GJQsqaUBKTNV-1" vertex="1"><mxGeometry x="2590" y="-30" width="180" height="86" as="geometry"/></mxCell><mxCell id="bKio8j04jmM2YxtdDzjN-42" value="+ field: type" style="text;strokeColor=none;fillColor=none;align=left;verticalAlign=top;spacingLeft=4;spacingRight=4;overflow=hidden;rotatable=0;points=[[0,0.5],[1,0.5]];portConstraint=eastwest;" parent="bKio8j04jmM2YxtdDzjN-41" vertex="1"><mxGeometry y="26" width="180" height="26" as="geometry"/></mxCell><mxCell id="bKio8j04jmM2YxtdDzjN-43" value="" style="line;strokeWidth=1;fillColor=none;align=left;verticalAlign=middle;spacingTop=-1;spacingLeft=3;spacingRight=3;rotatable=0;labelPosition=right;points=[];portConstraint=eastwest;" parent="bKio8j04jmM2YxtdDzjN-41" vertex="1"><mxGeometry y="52" width="180" height="8" as="geometry"/></mxCell><mxCell id="bKio8j04jmM2YxtdDzjN-44" value="+ method(type): type" style="text;strokeColor=none;fillColor=none;align=left;verticalAlign=top;spacingLeft=4;spacingRight=4;overflow=hidden;rotatable=0;points=[[0,0.5],[1,0.5]];portConstraint=eastwest;" parent="bKio8j04jmM2YxtdDzjN-41" vertex="1"><mxGeometry y="60" width="180" height="26" as="geometry"/></mxCell><mxCell id="1BunGHNpHi8FI4VFUbaE-12" style="edgeStyle=orthogonalEdgeStyle;rounded=0;orthogonalLoop=1;jettySize=auto;html=1;dashed=1;endArrow=block;endFill=0;" parent="WIyWlLk6GJQsqaUBKTNV-1" source="1BunGHNpHi8FI4VFUbaE-0" target="1BunGHNpHi8FI4VFUbaE-8" edge="1"><mxGeometry relative="1" as="geometry"><Array as="points"><mxPoint x="890" y="1410"/><mxPoint x="1060" y="1410"/></Array></mxGeometry></mxCell><mxCell id="1BunGHNpHi8FI4VFUbaE-0" value="NormalMachine" style="swimlane;fontStyle=1;align=center;verticalAlign=top;childLayout=stackLayout;horizontal=1;startSize=26;horizontalStack=0;resizeParent=1;resizeParentMax=0;resizeLast=0;collapsible=1;marginBottom=0;" parent="WIyWlLk6GJQsqaUBKTNV-1" vertex="1"><mxGeometry x="810" y="1510" width="160" height="86" as="geometry"/></mxCell><mxCell id="1BunGHNpHi8FI4VFUbaE-1" value="+ field: type" style="text;strokeColor=none;fillColor=none;align=left;verticalAlign=top;spacingLeft=4;spacingRight=4;overflow=hidden;rotatable=0;points=[[0,0.5],[1,0.5]];portConstraint=eastwest;" parent="1BunGHNpHi8FI4VFUbaE-0" vertex="1"><mxGeometry y="26" width="160" height="26" as="geometry"/></mxCell><mxCell id="1BunGHNpHi8FI4VFUbaE-2" value="" style="line;strokeWidth=1;fillColor=none;align=left;verticalAlign=middle;spacingTop=-1;spacingLeft=3;spacingRight=3;rotatable=0;labelPosition=right;points=[];portConstraint=eastwest;" parent="1BunGHNpHi8FI4VFUbaE-0" vertex="1"><mxGeometry y="52" width="160" height="8" as="geometry"/></mxCell><mxCell id="1BunGHNpHi8FI4VFUbaE-3" value="+ method(type): type" style="text;strokeColor=none;fillColor=none;align=left;verticalAlign=top;spacingLeft=4;spacingRight=4;overflow=hidden;rotatable=0;points=[[0,0.5],[1,0.5]];portConstraint=eastwest;" parent="1BunGHNpHi8FI4VFUbaE-0" vertex="1"><mxGeometry y="60" width="160" height="26" as="geometry"/></mxCell><mxCell id="1BunGHNpHi8FI4VFUbaE-8" value="IMachineComponent" style="swimlane;fontStyle=0;childLayout=stackLayout;horizontal=1;startSize=26;fillColor=none;horizontalStack=0;resizeParent=1;resizeParentMax=0;resizeLast=0;collapsible=1;marginBottom=0;" parent="WIyWlLk6GJQsqaUBKTNV-1" vertex="1"><mxGeometry x="990" y="1260" width="140" height="104" as="geometry"/></mxCell><mxCell id="1BunGHNpHi8FI4VFUbaE-9" value="+ field: type" style="text;strokeColor=none;fillColor=none;align=left;verticalAlign=top;spacingLeft=4;spacingRight=4;overflow=hidden;rotatable=0;points=[[0,0.5],[1,0.5]];portConstraint=eastwest;" parent="1BunGHNpHi8FI4VFUbaE-8" vertex="1"><mxGeometry y="26" width="140" height="26" as="geometry"/></mxCell><mxCell id="1BunGHNpHi8FI4VFUbaE-10" value="+ field: type" style="text;strokeColor=none;fillColor=none;align=left;verticalAlign=top;spacingLeft=4;spacingRight=4;overflow=hidden;rotatable=0;points=[[0,0.5],[1,0.5]];portConstraint=eastwest;" parent="1BunGHNpHi8FI4VFUbaE-8" vertex="1"><mxGeometry y="52" width="140" height="26" as="geometry"/></mxCell><mxCell id="1BunGHNpHi8FI4VFUbaE-11" value="+ field: type" style="text;strokeColor=none;fillColor=none;align=left;verticalAlign=top;spacingLeft=4;spacingRight=4;overflow=hidden;rotatable=0;points=[[0,0.5],[1,0.5]];portConstraint=eastwest;" parent="1BunGHNpHi8FI4VFUbaE-8" vertex="1"><mxGeometry y="78" width="140" height="26" as="geometry"/></mxCell><mxCell id="1BunGHNpHi8FI4VFUbaE-13" value="NormalMachineOutputInventory" style="swimlane;fontStyle=1;align=center;verticalAlign=top;childLayout=stackLayout;horizontal=1;startSize=26;horizontalStack=0;resizeParent=1;resizeParentMax=0;resizeLast=0;collapsible=1;marginBottom=0;" parent="WIyWlLk6GJQsqaUBKTNV-1" vertex="1"><mxGeometry x="1490" y="1510" width="210" height="86" as="geometry"/></mxCell><mxCell id="1BunGHNpHi8FI4VFUbaE-14" value="+ field: type" style="text;strokeColor=none;fillColor=none;align=left;verticalAlign=top;spacingLeft=4;spacingRight=4;overflow=hidden;rotatable=0;points=[[0,0.5],[1,0.5]];portConstraint=eastwest;" parent="1BunGHNpHi8FI4VFUbaE-13" vertex="1"><mxGeometry y="26" width="210" height="26" as="geometry"/></mxCell><mxCell id="1BunGHNpHi8FI4VFUbaE-15" value="" style="line;strokeWidth=1;fillColor=none;align=left;verticalAlign=middle;spacingTop=-1;spacingLeft=3;spacingRight=3;rotatable=0;labelPosition=right;points=[];portConstraint=eastwest;" parent="1BunGHNpHi8FI4VFUbaE-13" vertex="1"><mxGeometry y="52" width="210" height="8" as="geometry"/></mxCell><mxCell id="1BunGHNpHi8FI4VFUbaE-16" value="+ method(type): type" style="text;strokeColor=none;fillColor=none;align=left;verticalAlign=top;spacingLeft=4;spacingRight=4;overflow=hidden;rotatable=0;points=[[0,0.5],[1,0.5]];portConstraint=eastwest;" parent="1BunGHNpHi8FI4VFUbaE-13" vertex="1"><mxGeometry y="60" width="210" height="26" as="geometry"/></mxCell><mxCell id="1BunGHNpHi8FI4VFUbaE-31" style="edgeStyle=orthogonalEdgeStyle;rounded=0;orthogonalLoop=1;jettySize=auto;html=1;endArrow=classic;endFill=1;" parent="WIyWlLk6GJQsqaUBKTNV-1" source="1BunGHNpHi8FI4VFUbaE-17" target="1BunGHNpHi8FI4VFUbaE-13" edge="1"><mxGeometry relative="1" as="geometry"/></mxCell><mxCell id="1BunGHNpHi8FI4VFUbaE-17" value="NormalMachineProcess" style="swimlane;fontStyle=1;align=center;verticalAlign=top;childLayout=stackLayout;horizontal=1;startSize=26;horizontalStack=0;resizeParent=1;resizeParentMax=0;resizeLast=0;collapsible=1;marginBottom=0;" parent="WIyWlLk6GJQsqaUBKTNV-1" vertex="1"><mxGeometry x="1257.5" y="1510" width="160" height="86" as="geometry"/></mxCell><mxCell id="1BunGHNpHi8FI4VFUbaE-18" value="+ field: type" style="text;strokeColor=none;fillColor=none;align=left;verticalAlign=top;spacingLeft=4;spacingRight=4;overflow=hidden;rotatable=0;points=[[0,0.5],[1,0.5]];portConstraint=eastwest;" parent="1BunGHNpHi8FI4VFUbaE-17" vertex="1"><mxGeometry y="26" width="160" height="26" as="geometry"/></mxCell><mxCell id="1BunGHNpHi8FI4VFUbaE-19" value="" style="line;strokeWidth=1;fillColor=none;align=left;verticalAlign=middle;spacingTop=-1;spacingLeft=3;spacingRight=3;rotatable=0;labelPosition=right;points=[];portConstraint=eastwest;" parent="1BunGHNpHi8FI4VFUbaE-17" vertex="1"><mxGeometry y="52" width="160" height="8" as="geometry"/></mxCell><mxCell id="1BunGHNpHi8FI4VFUbaE-20" value="+ method(type): type" style="text;strokeColor=none;fillColor=none;align=left;verticalAlign=top;spacingLeft=4;spacingRight=4;overflow=hidden;rotatable=0;points=[[0,0.5],[1,0.5]];portConstraint=eastwest;" parent="1BunGHNpHi8FI4VFUbaE-17" vertex="1"><mxGeometry y="60" width="160" height="26" as="geometry"/></mxCell><mxCell id="1BunGHNpHi8FI4VFUbaE-29" style="edgeStyle=orthogonalEdgeStyle;rounded=0;orthogonalLoop=1;jettySize=auto;html=1;dashed=1;endArrow=block;endFill=0;" parent="WIyWlLk6GJQsqaUBKTNV-1" source="1BunGHNpHi8FI4VFUbaE-25" target="1BunGHNpHi8FI4VFUbaE-8" edge="1"><mxGeometry relative="1" as="geometry"/></mxCell><mxCell id="1BunGHNpHi8FI4VFUbaE-30" style="edgeStyle=orthogonalEdgeStyle;rounded=0;orthogonalLoop=1;jettySize=auto;html=1;endArrow=classic;endFill=1;" parent="WIyWlLk6GJQsqaUBKTNV-1" source="1BunGHNpHi8FI4VFUbaE-25" target="1BunGHNpHi8FI4VFUbaE-17" edge="1"><mxGeometry relative="1" as="geometry"><Array as="points"><mxPoint x="1125" y="1660"/><mxPoint x="1338" y="1660"/></Array></mxGeometry></mxCell><mxCell id="1BunGHNpHi8FI4VFUbaE-25" value="NormalMachineInputInventory" style="swimlane;fontStyle=1;align=center;verticalAlign=top;childLayout=stackLayout;horizontal=1;startSize=26;horizontalStack=0;resizeParent=1;resizeParentMax=0;resizeLast=0;collapsible=1;marginBottom=0;" parent="WIyWlLk6GJQsqaUBKTNV-1" vertex="1"><mxGeometry x="1020" y="1510" width="210" height="86" as="geometry"/></mxCell><mxCell id="1BunGHNpHi8FI4VFUbaE-26" value="+ field: type" style="text;strokeColor=none;fillColor=none;align=left;verticalAlign=top;spacingLeft=4;spacingRight=4;overflow=hidden;rotatable=0;points=[[0,0.5],[1,0.5]];portConstraint=eastwest;" parent="1BunGHNpHi8FI4VFUbaE-25" vertex="1"><mxGeometry y="26" width="210" height="26" as="geometry"/></mxCell><mxCell id="1BunGHNpHi8FI4VFUbaE-27" value="" style="line;strokeWidth=1;fillColor=none;align=left;verticalAlign=middle;spacingTop=-1;spacingLeft=3;spacingRight=3;rotatable=0;labelPosition=right;points=[];portConstraint=eastwest;" parent="1BunGHNpHi8FI4VFUbaE-25" vertex="1"><mxGeometry y="52" width="210" height="8" as="geometry"/></mxCell><mxCell id="1BunGHNpHi8FI4VFUbaE-28" value="+ method(type): type" style="text;strokeColor=none;fillColor=none;align=left;verticalAlign=top;spacingLeft=4;spacingRight=4;overflow=hidden;rotatable=0;points=[[0,0.5],[1,0.5]];portConstraint=eastwest;" parent="1BunGHNpHi8FI4VFUbaE-25" vertex="1"><mxGeometry y="60" width="210" height="26" as="geometry"/></mxCell><mxCell id="5" value="PacketHandler" style="swimlane;fontStyle=1;align=center;verticalAlign=top;childLayout=stackLayout;horizontal=1;startSize=26;horizontalStack=0;resizeParent=1;resizeParentMax=0;resizeLast=0;collapsible=1;marginBottom=0;" vertex="1" parent="WIyWlLk6GJQsqaUBKTNV-1"><mxGeometry x="2230" y="1770" width="210" height="86" as="geometry"/></mxCell><mxCell id="6" value="+ field: type" style="text;strokeColor=none;fillColor=none;align=left;verticalAlign=top;spacingLeft=4;spacingRight=4;overflow=hidden;rotatable=0;points=[[0,0.5],[1,0.5]];portConstraint=eastwest;" vertex="1" parent="5"><mxGeometry y="26" width="210" height="26" as="geometry"/></mxCell><mxCell id="7" value="" style="line;strokeWidth=1;fillColor=none;align=left;verticalAlign=middle;spacingTop=-1;spacingLeft=3;spacingRight=3;rotatable=0;labelPosition=right;points=[];portConstraint=eastwest;" vertex="1" parent="5"><mxGeometry y="52" width="210" height="8" as="geometry"/></mxCell><mxCell id="8" value="+ method(type): type" style="text;strokeColor=none;fillColor=none;align=left;verticalAlign=top;spacingLeft=4;spacingRight=4;overflow=hidden;rotatable=0;points=[[0,0.5],[1,0.5]];portConstraint=eastwest;" vertex="1" parent="5"><mxGeometry y="60" width="210" height="26" as="geometry"/></mxCell></root></mxGraphModel></diagram></mxfile>